<svg id="Capa_1" enable-background="new 0 0 512 512" height="512" viewBox="0 0 512 512" width="512" xmlns="http://www.w3.org/2000/svg"><g><path d="m396 75c0-41.355-33.645-75-75-75s-75 33.645-75 75v258.66c-19.143 19.575-30 45.934-30 73.34 0 57.897 47.103 105 105 105s105-47.103 105-105c0-27.406-10.857-53.766-30-73.34zm-75 407c-41.355 0-75-33.645-75-75 0-21.192 9.117-41.523 25.015-55.781 3.173-2.845 4.985-6.905 4.985-11.167v-265.052c0-24.813 20.187-45 45-45s45 20.187 45 45v265.052c0 4.262 1.812 8.322 4.985 11.167 15.898 14.258 25.015 34.589 25.015 55.781 0 41.355-33.644 75-75 75z"/><path d="m336 364.58v-169.58c0-8.284-6.716-15-15-15s-15 6.716-15 15v169.58c-17.459 6.192-30 22.865-30 42.42 0 24.813 20.187 45 45 45s45-20.187 45-45c0-19.555-12.541-36.228-30-42.42zm-15 57.42c-8.271 0-15-6.729-15-15s6.729-15 15-15 15 6.729 15 15-6.728 15-15 15z"/><path d="m441 90h30c8.284 0 15-6.716 15-15s-6.716-15-15-15h-30c-8.284 0-15 6.716-15 15s6.716 15 15 15z"/><path d="m441 150h15c8.284 0 15-6.716 15-15s-6.716-15-15-15h-15c-8.284 0-15 6.716-15 15s6.716 15 15 15z"/><path d="m471 180h-30c-8.284 0-15 6.716-15 15s6.716 15 15 15h30c8.284 0 15-6.716 15-15s-6.716-15-15-15z"/><path d="m441 270h15c8.284 0 15-6.716 15-15s-6.716-15-15-15h-15c-8.284 0-15 6.716-15 15s6.716 15 15 15z"/><path d="m471 300h-30c-8.284 0-15 6.716-15 15s6.716 15 15 15h30c8.284 0 15-6.716 15-15s-6.716-15-15-15z"/><path d="m96 255v-143.787l14.394 14.393c2.928 2.93 6.767 4.394 10.606 4.394s7.678-1.464 10.606-4.394c5.858-5.858 5.858-15.355 0-21.213l-40-40c-5.857-5.858-15.355-5.858-21.213 0l-40 40c-5.858 5.858-5.858 15.355 0 21.213 5.857 5.858 15.355 5.858 21.213 0l14.394-14.393v143.787c0 8.284 6.716 15 15 15s15-6.716 15-15z"/><path d="m170.394 324.394-14.394 14.393v-143.787c0-8.284-6.716-15-15-15s-15 6.716-15 15v143.787l-14.394-14.393c-5.857-5.858-15.355-5.858-21.213 0s-5.858 15.355 0 21.213l40 40c2.929 2.929 6.768 4.393 10.607 4.393s7.678-1.464 10.606-4.394l40-40c5.858-5.858 5.858-15.355 0-21.213-5.857-5.858-15.355-5.858-21.212.001z"/></g></svg>